<?xml version="1.0" encoding="UTF-8" standalone="no"?><!DOCTYPE svg PUBLIC "-//W3C//DTD SVG 1.1//EN" "http://www.w3.org/Graphics/SVG/1.1/DTD/svg11.dtd"><svg width="100%" height="100%" viewBox="0 0 100 100" version="1.1" xmlns="http://www.w3.org/2000/svg" xmlns:xlink="http://www.w3.org/1999/xlink" xml:space="preserve" xmlns:serif="http://www.serif.com/" style="fill-rule:evenodd;clip-rule:evenodd;stroke-linejoin:round;stroke-miterlimit:1.41421;"><rect id="audio" x="0" y="0" width="100" height="100" style="fill:none;"/><path d="M76.507,83.41c0.953,0 1.968,-0.357 2.684,-1.13c8.646,-8.622 13.41,-20.098 13.41,-32.287c0,-12.19 -4.764,-23.665 -13.41,-32.287c-1.492,-1.487 -3.875,-1.487 -5.363,0c-1.489,1.486 -1.489,3.865 0,5.351c7.153,7.195 11.151,16.768 11.151,26.936c0,10.168 -3.998,19.741 -11.151,26.935c-1.489,1.487 -1.489,3.865 0,5.352c0.714,0.773 1.667,1.13 2.679,1.13Zm-53.987,-46.664l17.282,-17.24c0.623,-0.621 1.453,-0.983 2.335,-0.983c1.817,0 3.322,1.501 3.322,3.313l0,56.328c0,1.812 -1.505,3.313 -3.322,3.313c-0.882,0 -1.712,-0.362 -2.335,-0.983l-17.282,-17.24l-13.597,0c-1.817,0 -3.322,-1.502 -3.322,-3.314l0,-19.88c0,-1.812 1.505,-3.314 3.322,-3.314l13.597,0Zm43.201,35.901c0.954,0 1.969,-0.356 2.685,-1.129c5.779,-5.768 8.935,-13.379 8.935,-21.525c0,-8.146 -3.156,-15.757 -8.935,-21.525c-1.492,-1.486 -3.879,-1.486 -5.37,0c-1.491,1.487 -1.491,3.865 0,5.352c4.296,4.34 6.682,10.048 6.682,16.173c0,6.124 -2.386,11.832 -6.682,16.173c-1.491,1.487 -1.491,3.865 0,5.352c0.716,0.773 1.67,1.129 2.685,1.129Zm-10.786,-10.762c0.953,0 1.905,-0.416 2.68,-1.13c2.858,-2.854 4.466,-6.719 4.466,-10.762c0,-4.044 -1.608,-7.908 -4.466,-10.763c-1.489,-1.486 -3.872,-1.486 -5.362,0c-1.49,1.487 -1.55,3.865 0,5.352c1.43,1.486 2.205,3.389 2.205,5.411c0,2.021 -0.775,3.924 -2.205,5.351c-1.55,1.487 -1.49,3.925 0,5.411c0.715,0.714 1.669,1.13 2.682,1.13Z" style="fill:#fff;"/></svg>