<?xml version="1.0" encoding="utf-8"?>
<!-- Generator: Adobe Illustrator 19.2.0, SVG Export Plug-In . SVG Version: 6.00 Build 0)  -->
<svg version="1.1" baseProfile="tiny" id="Layer_2" xmlns="http://www.w3.org/2000/svg" xmlns:xlink="http://www.w3.org/1999/xlink"
	 x="0px" y="0px" viewBox="0 0 42.1 29.8" xml:space="preserve">
<g>
	<path fill="#383838" d="M21.7,26.9V2.9l-7.4,7.4H7v9.1h7.2L21.7,26.9z M25.9,7.7l-2.1,2c1.4,1.4,2.2,3.4,2.2,5.3
		c0,1.9-0.7,3.7-2,5.1l1.9,1.9c1.9-2,3.1-4.6,3.1-7.2C29,12.4,28,9.9,25.9,7.7z M30.5,3.6l-2.2,2.2c2.4,2.4,3.7,5.8,3.7,9.1
		c0,3.3-1.2,6.7-3.7,9.2l2.1,2.1c3.1-3.1,4.8-7.3,4.8-11.5C35.1,10.8,33.7,6.8,30.5,3.6L30.5,3.6L30.5,3.6z"/>
</g>
</svg>
