<?xml version="1.0" encoding="UTF-8" standalone="no"?><!DOCTYPE svg PUBLIC "-//W3C//DTD SVG 1.1//EN" "http://www.w3.org/Graphics/SVG/1.1/DTD/svg11.dtd"><svg width="100%" height="100%" viewBox="0 0 100 100" version="1.1" xmlns="http://www.w3.org/2000/svg" xmlns:xlink="http://www.w3.org/1999/xlink" xml:space="preserve" xmlns:serif="http://www.serif.com/" style="fill-rule:evenodd;clip-rule:evenodd;stroke-linejoin:round;stroke-miterlimit:1.41421;"><rect id="audio-no" x="0" y="0" width="100" height="100" style="fill:none;"/><clipPath id="_clip1"><rect id="audio-no1" serif:id="audio-no" x="0" y="0" width="100" height="100"/></clipPath><g clip-path="url(#_clip1)"><path d="M78.327,82.95c-0.568,0.312 -1.206,0.46 -1.82,0.46c-0.127,0 -0.253,-0.006 -0.379,-0.017l1.321,-1.321l0.878,0.878Zm-32.868,-15.786l0,11c0,1.812 -1.505,3.313 -3.322,3.313c-0.882,0 -1.712,-0.362 -2.335,-0.983l-3.841,-3.832l9.498,-9.498Zm40.647,-40.647c4.234,7.02 6.495,15.078 6.495,23.476c0,8.401 -2.263,16.463 -6.5,23.485l-5.585,-5.585c2.907,-5.447 4.463,-11.558 4.463,-17.9c0,-6.339 -1.554,-12.447 -4.458,-17.891l5.585,-5.585Zm-63.78,36.737l-13.403,0c-1.817,0 -3.322,-1.502 -3.322,-3.314l0,-19.88c0,-1.812 1.505,-3.314 3.322,-3.314l13.403,0l13.253,13.254l-13.253,13.254Zm52.488,-25.446c1.659,3.789 2.527,7.913 2.527,12.185c0,4.275 -0.869,8.403 -2.531,12.194l-5.951,-5.95c0.566,-2.003 0.859,-4.098 0.859,-6.244c0,-2.142 -0.291,-4.233 -0.855,-6.233l5.951,-5.952Zm-38.853,-14.47l3.841,-3.832c0.623,-0.621 1.453,-0.983 2.335,-0.983c1.817,0 3.322,1.501 3.322,3.313l0,11l-9.498,-9.498Zm40.169,-6.729c0.748,-0.075 1.514,0.074 2.192,0.446l-0.873,0.873l-1.319,-1.319Z" style="fill:#fff;fill-opacity:0.5;"/><path d="M49.101,41.377l28.348,-28.348c2.874,2.875 5.749,5.749 8.623,8.623l-28.348,28.348l28.348,28.348l-8.623,8.623l-28.348,-28.348l-28.348,28.348l-8.623,-8.623l28.348,-28.348l-28.348,-28.348c2.875,-2.874 5.749,-5.748 8.623,-8.623l28.348,28.348Z" style="fill:#fff;"/></g></svg>