<?xml version="1.0" encoding="UTF-8" standalone="no"?><!DOCTYPE svg PUBLIC "-//W3C//DTD SVG 1.1//EN" "http://www.w3.org/Graphics/SVG/1.1/DTD/svg11.dtd"><svg width="100%" height="100%" viewBox="0 0 100 100" version="1.1" xmlns="http://www.w3.org/2000/svg" xmlns:xlink="http://www.w3.org/1999/xlink" xml:space="preserve" xmlns:serif="http://www.serif.com/" style="fill-rule:evenodd;clip-rule:evenodd;stroke-linejoin:round;stroke-miterlimit:1.41421;"><rect id="pause" x="0" y="0" width="100" height="100" style="fill:none;"/><clipPath id="_clip1"><rect id="pause1" serif:id="pause" x="0" y="0" width="100" height="100"/></clipPath><g clip-path="url(#_clip1)"><path d="M39.132,25.697c2.859,0 5.18,2.322 5.18,5.181l0,38.244c0,2.859 -2.321,5.181 -5.18,5.181l-8.254,0c-2.859,0 -5.181,-2.322 -5.181,-5.181l0,-38.244c0,-2.859 2.322,-5.181 5.181,-5.181l8.254,0Zm29.99,0c2.859,0 5.181,2.322 5.181,5.181l0,38.244c0,2.859 -2.322,5.181 -5.181,5.181l-8.254,0c-2.859,0 -5.18,-2.322 -5.18,-5.181l0,-38.244c0,-2.859 2.321,-5.181 5.18,-5.181l8.254,0Z" style="fill:#fff;"/></g></svg>