<?xml version="1.0" encoding="UTF-8" standalone="no"?><!DOCTYPE svg PUBLIC "-//W3C//DTD SVG 1.1//EN" "http://www.w3.org/Graphics/SVG/1.1/DTD/svg11.dtd"><svg width="100%" height="100%" viewBox="0 0 100 100" version="1.1" xmlns="http://www.w3.org/2000/svg" xmlns:xlink="http://www.w3.org/1999/xlink" xml:space="preserve" xmlns:serif="http://www.serif.com/" style="fill-rule:evenodd;clip-rule:evenodd;stroke-linejoin:round;stroke-miterlimit:1.41421;"><rect id="play" x="0" y="0" width="100" height="100" style="fill:none;"/><clipPath id="_clip1"><rect id="play1" serif:id="play" x="0" y="0" width="100" height="100"/></clipPath><g clip-path="url(#_clip1)"><path d="M70.958,45.518c1.501,0.997 2.403,2.68 2.403,4.482c0,1.802 -0.902,3.485 -2.403,4.482c-9.265,6.154 -25.918,17.217 -35.961,23.889c-1.652,1.097 -3.773,1.197 -5.52,0.26c-1.748,-0.937 -2.838,-2.759 -2.838,-4.741c0,-12.837 0,-34.943 0,-47.78c0,-1.982 1.09,-3.804 2.838,-4.741c1.747,-0.937 3.868,-0.837 5.52,0.26c10.043,6.672 26.696,17.735 35.961,23.889Z" style="fill:#fff;"/></g></svg>