<?xml version="1.0" encoding="utf-8"?>
<!-- Generator: Adobe Illustrator 18.0.0, SVG Export Plug-In . SVG Version: 6.00 Build 0)  -->
<svg version="1.2" baseProfile="tiny" id="Layer_6" xmlns="http://www.w3.org/2000/svg" xmlns:xlink="http://www.w3.org/1999/xlink"
	 x="0px" y="0px" viewBox="0 0 77.9 77.9" xml:space="preserve">
<path fill="#142B3C" d="M38.9,12.4v22c-1.4,0-2.6,0.6-3.5,1.6H11.9c-1.7,0-3,1.3-3,3c0,1.7,1.3,3,3,3h0.7
	C14,55.2,25.3,65.5,38.9,65.5c14.7,0,26.6-11.9,26.6-26.6S53.6,12.4,38.9,12.4z"/>
<path fill="#142B3C" d="M38.9,0C17.4,0,0,17.4,0,38.9s17.4,38.9,38.9,38.9c21.5,0,38.9-17.4,38.9-38.9S60.5,0,38.9,0z M38.9,71.9
	C20.8,71.9,6,57.1,6,38.9C6,20.8,20.8,6,38.9,6s32.9,14.8,32.9,32.9C71.9,57.1,57.1,71.9,38.9,71.9z"/>
</svg>
