<?xml version="1.0" encoding="utf-8"?>
<!-- Generator: Adobe Illustrator 22.1.0, SVG Export Plug-In . SVG Version: 6.00 Build 0)  -->
<svg version="1.1" id="Layer_1" xmlns="http://www.w3.org/2000/svg" xmlns:xlink="http://www.w3.org/1999/xlink" x="0px" y="0px"
	 viewBox="0 0 150 150" style="enable-background:new 0 0 150 150;" xml:space="preserve">
<style type="text/css">
	.st0{fill:#21FFB4;}
</style>
<path class="st0" d="M31,116.5l-9,9.2c-1.4,1.4-1.4,3.8,0,5.2c0.7,0.7,1.6,1.1,2.5,1.1s1.8-0.4,2.5-1.1l9-9.2c1.4-1.4,1.4-3.8,0-5.2
	C34.7,115.1,32.4,115.1,31,116.5z M75,150c5,0,9.3-3.3,11-7.9H64C65.7,146.7,70,150,75,150z M16.4,73H3.6c-2,0-3.6,1.7-3.6,3.7
	s1.6,3.7,3.6,3.7h12.8c2,0,3.6-1.7,3.6-3.7S18.4,73,16.4,73z M31,36.9c0.7,0.7,1.6,1.1,2.5,1.1s1.8-0.4,2.5-1.1
	c1.4-1.4,1.4-3.8,0-5.2l-9-9.2c-1.4-1.4-3.7-1.4-5.1,0c-1.4,1.4-1.4,3.8,0,5.2L31,36.9z M146.4,73h-12.8c-2,0-3.6,1.7-3.6,3.7
	s1.6,3.7,3.6,3.7h12.8c2,0,3.6-1.7,3.6-3.7S148.4,73,146.4,73z M122.9,22.5l-9,9.2c-1.4,1.4-1.4,3.8,0,5.2c0.7,0.7,1.6,1.1,2.5,1.1
	s1.8-0.4,2.5-1.1l9-9.2c1.4-1.4,1.4-3.8,0-5.2C126.6,21,124.3,21,122.9,22.5z M75,20.5c2,0,3.6-1.7,3.6-3.7V3.7C78.6,1.7,77,0,75,0
	s-3.6,1.7-3.6,3.7v13.1C71.4,18.8,73,20.5,75,20.5z M119,116.5c-1.4-1.4-3.7-1.4-5.1,0c-1.4,1.4-1.4,3.8,0,5.2l9,9.2
	c0.7,0.7,1.6,1.1,2.5,1.1s1.8-0.4,2.5-1.1c1.4-1.4,1.4-3.8,0-5.2L119,116.5z M106.7,42c-9.5-9.1-22-13.6-35-12.6
	c-23,1.6-41.4,20.6-43,44.1C27.5,91.2,36,108,50.8,117.2c2.6,1.6,4.1,4.4,4.1,7.5v3.6c0,5.7,4.5,10.3,10,10.3h20.2
	c5.5,0,10-4.6,10-10.3v-3.6c0-3.1,1.6-5.9,4.2-7.6c13.8-8.7,22.1-23.8,22.1-40.5C121.4,63.6,116,50.9,106.7,42z M97.3,85.5
	c-1.8,1.4-4.5,1.1-5.9-0.8l-5-6.6l-8.3,9.2c-0.8,0.9-1.9,1.4-3.1,1.4s-2.3-0.5-3.1-1.4l-8.3-9.2l-5,6.6c-1.4,1.9-4.1,2.2-5.9,0.8
	c-1.8-1.5-2.2-4.2-0.8-6l8-10.6c0.8-1,1.9-1.6,3.1-1.7c1.2-0.1,2.4,0.4,3.3,1.4L75,78l8.6-9.5c0.8-0.9,2-1.4,3.3-1.4
	c1.2,0.1,2.4,0.7,3.1,1.7l8,10.6C99.4,81.3,99.1,84,97.3,85.5z"/>
</svg>
