<?xml version="1.0" encoding="UTF-8" standalone="no"?><!DOCTYPE svg PUBLIC "-//W3C//DTD SVG 1.1//EN" "http://www.w3.org/Graphics/SVG/1.1/DTD/svg11.dtd"><svg width="100%" height="100%" viewBox="0 0 80 64" version="1.1" xmlns="http://www.w3.org/2000/svg" xmlns:xlink="http://www.w3.org/1999/xlink" xml:space="preserve" xmlns:serif="http://www.serif.com/" style="fill-rule:evenodd;clip-rule:evenodd;stroke-linejoin:round;stroke-miterlimit:1.41421;"><g id="FilmFrame"><path id="Film" d="M0,0l80,0l0,64l-80,0l0,-64Zm73.988,2.783c-0.589,0 -1.073,0.474 -1.073,1.049l0,3.65c0,0.575 0.484,1.049 1.073,1.049l2.024,0c0.589,0 1.073,-0.474 1.073,-1.049l0,-3.65c0,-0.575 -0.484,-1.049 -1.073,-1.049l-2.024,0Zm-10,0c-0.589,0 -1.073,0.474 -1.073,1.049l0,3.65c0,0.575 0.484,1.049 1.073,1.049l2.024,0c0.589,0 1.073,-0.474 1.073,-1.049l0,-3.65c0,-0.575 -0.484,-1.049 -1.073,-1.049l-2.024,0Zm-10,0c-0.589,0 -1.073,0.474 -1.073,1.049l0,3.65c0,0.575 0.484,1.049 1.073,1.049l2.024,0c0.589,0 1.073,-0.474 1.073,-1.049l0,-3.65c0,-0.575 -0.484,-1.049 -1.073,-1.049l-2.024,0Zm-10,0c-0.589,0 -1.073,0.474 -1.073,1.049l0,3.65c0,0.575 0.484,1.049 1.073,1.049l2.024,0c0.589,0 1.073,-0.474 1.073,-1.049l0,-3.65c0,-0.575 -0.484,-1.049 -1.073,-1.049l-2.024,0Zm-10,0c-0.589,0 -1.073,0.474 -1.073,1.049l0,3.65c0,0.575 0.484,1.049 1.073,1.049l2.024,0c0.589,0 1.073,-0.474 1.073,-1.049l0,-3.65c0,-0.575 -0.484,-1.049 -1.073,-1.049l-2.024,0Zm-10,0c-0.589,0 -1.073,0.474 -1.073,1.049l0,3.65c0,0.575 0.484,1.049 1.073,1.049l2.024,0c0.589,0 1.073,-0.474 1.073,-1.049l0,-3.65c0,-0.575 -0.484,-1.049 -1.073,-1.049l-2.024,0Zm-10,0c-0.589,0 -1.073,0.474 -1.073,1.049l0,3.65c0,0.575 0.484,1.049 1.073,1.049l2.024,0c0.589,0 1.073,-0.474 1.073,-1.049l0,-3.65c0,-0.575 -0.484,-1.049 -1.073,-1.049l-2.024,0Zm-10,0c-0.589,0 -1.073,0.474 -1.073,1.049l0,3.65c0,0.575 0.484,1.049 1.073,1.049l2.024,0c0.589,0 1.073,-0.474 1.073,-1.049l0,-3.65c0,-0.575 -0.484,-1.049 -1.073,-1.049l-2.024,0Zm70,52.686c-0.589,0 -1.073,0.474 -1.073,1.049l0,3.65c0,0.575 0.484,1.049 1.073,1.049l2.024,0c0.589,0 1.073,-0.474 1.073,-1.049l0,-3.65c0,-0.575 -0.484,-1.049 -1.073,-1.049l-2.024,0Zm-10,0c-0.589,0 -1.073,0.474 -1.073,1.049l0,3.65c0,0.575 0.484,1.049 1.073,1.049l2.024,0c0.589,0 1.073,-0.474 1.073,-1.049l0,-3.65c0,-0.575 -0.484,-1.049 -1.073,-1.049l-2.024,0Zm-10,0c-0.589,0 -1.073,0.474 -1.073,1.049l0,3.65c0,0.575 0.484,1.049 1.073,1.049l2.024,0c0.589,0 1.073,-0.474 1.073,-1.049l0,-3.65c0,-0.575 -0.484,-1.049 -1.073,-1.049l-2.024,0Zm-10,0c-0.589,0 -1.073,0.474 -1.073,1.049l0,3.65c0,0.575 0.484,1.049 1.073,1.049l2.024,0c0.589,0 1.073,-0.474 1.073,-1.049l0,-3.65c0,-0.575 -0.484,-1.049 -1.073,-1.049l-2.024,0Zm-10,0c-0.589,0 -1.073,0.474 -1.073,1.049l0,3.65c0,0.575 0.484,1.049 1.073,1.049l2.024,0c0.589,0 1.073,-0.474 1.073,-1.049l0,-3.65c0,-0.575 -0.484,-1.049 -1.073,-1.049l-2.024,0Zm-10,0c-0.589,0 -1.073,0.474 -1.073,1.049l0,3.65c0,0.575 0.484,1.049 1.073,1.049l2.024,0c0.589,0 1.073,-0.474 1.073,-1.049l0,-3.65c0,-0.575 -0.484,-1.049 -1.073,-1.049l-2.024,0Zm-10,0c-0.589,0 -1.073,0.474 -1.073,1.049l0,3.65c0,0.575 0.484,1.049 1.073,1.049l2.024,0c0.589,0 1.073,-0.474 1.073,-1.049l0,-3.65c0,-0.575 -0.484,-1.049 -1.073,-1.049l-2.024,0Zm-10,0c-0.589,0 -1.073,0.474 -1.073,1.049l0,3.65c0,0.575 0.484,1.049 1.073,1.049l2.024,0c0.589,0 1.073,-0.474 1.073,-1.049l0,-3.65c0,-0.575 -0.484,-1.049 -1.073,-1.049l-2.024,0Z" style="fill-opacity:0.5;fill-rule:nonzero;"/><rect x="2" y="10.5" width="76" height="43" style="fill-opacity:0.25;"/></g></svg>