<?xml version="1.0" encoding="UTF-8" standalone="no"?><!DOCTYPE svg PUBLIC "-//W3C//DTD SVG 1.1//EN" "http://www.w3.org/Graphics/SVG/1.1/DTD/svg11.dtd"><svg width="100%" height="100%" viewBox="0 0 108 88" version="1.1" xmlns="http://www.w3.org/2000/svg" xmlns:xlink="http://www.w3.org/1999/xlink" xml:space="preserve" xmlns:serif="http://www.serif.com/" style="fill-rule:evenodd;clip-rule:evenodd;stroke-linejoin:round;stroke-miterlimit:1.41421;"><path id="Film" d="M0,0l108,0l0,88l-108,0l0,-88Zm99.884,3.827c-0.795,0 -1.449,0.651 -1.449,1.443l0,5.018c0,0.791 0.654,1.442 1.449,1.442l2.732,0c0.795,0 1.449,-0.651 1.449,-1.442l0,-5.018c0,-0.792 -0.654,-1.443 -1.449,-1.443l-2.732,0Zm-13.5,0c-0.795,0 -1.449,0.651 -1.449,1.443l0,5.018c0,0.791 0.654,1.442 1.449,1.442l2.732,0c0.795,0 1.449,-0.651 1.449,-1.442l0,-5.018c0,-0.792 -0.654,-1.443 -1.449,-1.443l-2.732,0Zm-13.5,0c-0.795,0 -1.449,0.651 -1.449,1.443l0,5.018c0,0.791 0.654,1.442 1.449,1.442l2.732,0c0.795,0 1.449,-0.651 1.449,-1.442l0,-5.018c0,-0.792 -0.654,-1.443 -1.449,-1.443l-2.732,0Zm-13.5,0c-0.795,0 -1.449,0.651 -1.449,1.443l0,5.018c0,0.791 0.654,1.442 1.449,1.442l2.732,0c0.795,0 1.449,-0.651 1.449,-1.442l0,-5.018c0,-0.792 -0.654,-1.443 -1.449,-1.443l-2.732,0Zm-13.5,0c-0.795,0 -1.449,0.651 -1.449,1.443l0,5.018c0,0.791 0.654,1.442 1.449,1.442l2.732,0c0.795,0 1.449,-0.651 1.449,-1.442l0,-5.018c0,-0.792 -0.654,-1.443 -1.449,-1.443l-2.732,0Zm-13.5,0c-0.795,0 -1.449,0.651 -1.449,1.443l0,5.018c0,0.791 0.654,1.442 1.449,1.442l2.732,0c0.795,0 1.449,-0.651 1.449,-1.442l0,-5.018c0,-0.792 -0.654,-1.443 -1.449,-1.443l-2.732,0Zm-13.5,0c-0.795,0 -1.449,0.651 -1.449,1.443l0,5.018c0,0.791 0.654,1.442 1.449,1.442l2.732,0c0.795,0 1.449,-0.651 1.449,-1.442l0,-5.018c0,-0.792 -0.654,-1.443 -1.449,-1.443l-2.732,0Zm-13.5,0c-0.795,0 -1.449,0.651 -1.449,1.443l0,5.018c0,0.791 0.654,1.442 1.449,1.442l2.732,0c0.795,0 1.449,-0.651 1.449,-1.442l0,-5.018c0,-0.792 -0.654,-1.443 -1.449,-1.443l-2.732,0Zm94.5,72.443c-0.795,0 -1.449,0.651 -1.449,1.442l0,5.018c0,0.792 0.654,1.443 1.449,1.443l2.732,0c0.795,0 1.449,-0.651 1.449,-1.443l0,-5.018c0,-0.791 -0.654,-1.442 -1.449,-1.442l-2.732,0Zm-13.5,0c-0.795,0 -1.449,0.651 -1.449,1.442l0,5.018c0,0.792 0.654,1.443 1.449,1.443l2.732,0c0.795,0 1.449,-0.651 1.449,-1.443l0,-5.018c0,-0.791 -0.654,-1.442 -1.449,-1.442l-2.732,0Zm-13.5,0c-0.795,0 -1.449,0.651 -1.449,1.442l0,5.018c0,0.792 0.654,1.443 1.449,1.443l2.732,0c0.795,0 1.449,-0.651 1.449,-1.443l0,-5.018c0,-0.791 -0.654,-1.442 -1.449,-1.442l-2.732,0Zm-13.5,0c-0.795,0 -1.449,0.651 -1.449,1.442l0,5.018c0,0.792 0.654,1.443 1.449,1.443l2.732,0c0.795,0 1.449,-0.651 1.449,-1.443l0,-5.018c0,-0.791 -0.654,-1.442 -1.449,-1.442l-2.732,0Zm-13.5,0c-0.795,0 -1.449,0.651 -1.449,1.442l0,5.018c0,0.792 0.654,1.443 1.449,1.443l2.732,0c0.795,0 1.449,-0.651 1.449,-1.443l0,-5.018c0,-0.791 -0.654,-1.442 -1.449,-1.442l-2.732,0Zm-13.5,0c-0.795,0 -1.449,0.651 -1.449,1.442l0,5.018c0,0.792 0.654,1.443 1.449,1.443l2.732,0c0.795,0 1.449,-0.651 1.449,-1.443l0,-5.018c0,-0.791 -0.654,-1.442 -1.449,-1.442l-2.732,0Zm-13.5,0c-0.795,0 -1.449,0.651 -1.449,1.442l0,5.018c0,0.792 0.654,1.443 1.449,1.443l2.732,0c0.795,0 1.449,-0.651 1.449,-1.443l0,-5.018c0,-0.791 -0.654,-1.442 -1.449,-1.442l-2.732,0Zm-13.5,0c-0.795,0 -1.449,0.651 -1.449,1.442l0,5.018c0,0.792 0.654,1.443 1.449,1.443l2.732,0c0.795,0 1.449,-0.651 1.449,-1.443l0,-5.018c0,-0.791 -0.654,-1.442 -1.449,-1.442l-2.732,0Z" style="fill-opacity:0.5;fill-rule:nonzero;"/></svg>